<mxfile host="app.diagrams.net" modified="2021-04-23T11:07:11.919Z" agent="5.0 (Windows NT 10.0; Win64; x64) AppleWebKit/537.36 (KHTML, like Gecko) Chrome/89.0.4389.128 Safari/537.36" etag="7tP4_OcEJry9oXrlsmhd" version="14.5.10" type="github">
  <diagram id="kgpKYQtTHZ0yAKxKKP6v" name="Page-1">
    <mxGraphModel dx="864" dy="553" grid="1" gridSize="10" guides="1" tooltips="1" connect="1" arrows="1" fold="1" page="1" pageScale="1" pageWidth="850" pageHeight="1100" background="none" math="0" shadow="0">
      <root>
        <mxCell id="0" />
        <mxCell id="1" parent="0" />
        <mxCell id="8y6wpV7VGv-w1ITJfM3C-70" value="Diagram1 heading" style="shape=umlFrame;whiteSpace=wrap;html=1;width=120;height=30;boundedLbl=1;verticalAlign=middle;align=left;spacingLeft=5;labelBackgroundColor=none;fontSize=12;" vertex="1" parent="1">
          <mxGeometry x="80" y="200" width="720" height="1080" as="geometry" />
        </mxCell>
        <mxCell id="8y6wpV7VGv-w1ITJfM3C-75" value="sd学生查看用户信息系统顺序图" style="verticalLabelPosition=middle;verticalAlign=middle;html=1;shape=card;whiteSpace=wrap;size=20;arcSize=12;labelBackgroundColor=none;fontSize=12;direction=west;align=center;labelPosition=center;" vertex="1" parent="1">
          <mxGeometry x="80" y="200" width="200" height="40" as="geometry" />
        </mxCell>
        <mxCell id="8y6wpV7VGv-w1ITJfM3C-78" value="学生" style="shape=umlActor;verticalLabelPosition=bottom;verticalAlign=top;html=1;labelBackgroundColor=none;fontSize=12;" vertex="1" parent="1">
          <mxGeometry x="300" y="240" width="20" height="50" as="geometry" />
        </mxCell>
        <mxCell id="8y6wpV7VGv-w1ITJfM3C-80" value="系统" style="fontStyle=0;labelBackgroundColor=none;fontSize=12;html=1;labelBorderColor=none;whiteSpace=wrap;fillColor=#fff2cc;strokeColor=#d6b656;" vertex="1" parent="1">
          <mxGeometry x="470" y="245" width="120" height="40" as="geometry" />
        </mxCell>
        <mxCell id="8y6wpV7VGv-w1ITJfM3C-92" value="" style="line;strokeWidth=1;direction=south;html=1;dashed=1;labelBackgroundColor=none;fontSize=12;sketch=0;shadow=0;" vertex="1" parent="1">
          <mxGeometry x="305" y="310" width="10" height="950" as="geometry" />
        </mxCell>
        <mxCell id="8y6wpV7VGv-w1ITJfM3C-96" value="" style="line;strokeWidth=1;direction=south;html=1;dashed=1;labelBackgroundColor=none;fontSize=12;sketch=0;shadow=0;" vertex="1" parent="1">
          <mxGeometry x="530" y="290" width="10" height="970" as="geometry" />
        </mxCell>
        <mxCell id="8y6wpV7VGv-w1ITJfM3C-97" value="" style="whiteSpace=wrap;html=1;shadow=0;labelBackgroundColor=none;sketch=0;fontSize=12;strokeWidth=1;direction=south;" vertex="1" parent="1">
          <mxGeometry x="305" y="340" width="10" height="80" as="geometry" />
        </mxCell>
        <mxCell id="8y6wpV7VGv-w1ITJfM3C-99" value="" style="whiteSpace=wrap;html=1;shadow=0;labelBackgroundColor=none;sketch=0;fontSize=12;strokeWidth=1;direction=south;" vertex="1" parent="1">
          <mxGeometry x="530" y="340" width="10" height="70" as="geometry" />
        </mxCell>
        <mxCell id="8y6wpV7VGv-w1ITJfM3C-105" value="1：查看用户信息（）" style="html=1;verticalAlign=bottom;endArrow=block;fontSize=12;strokeWidth=1;entryX=0;entryY=0.75;entryDx=0;entryDy=0;" edge="1" parent="1" target="8y6wpV7VGv-w1ITJfM3C-99">
          <mxGeometry width="80" relative="1" as="geometry">
            <mxPoint x="315" y="340" as="sourcePoint" />
            <mxPoint x="510" y="370" as="targetPoint" />
          </mxGeometry>
        </mxCell>
        <mxCell id="8y6wpV7VGv-w1ITJfM3C-107" value="1.1：返回用户信息（）" style="html=1;verticalAlign=bottom;endArrow=block;fontSize=12;strokeWidth=1;exitX=0.124;exitY=1;exitDx=0;exitDy=0;exitPerimeter=0;entryX=0.879;entryY=-0.233;entryDx=0;entryDy=0;entryPerimeter=0;" edge="1" parent="1" source="8y6wpV7VGv-w1ITJfM3C-96" target="8y6wpV7VGv-w1ITJfM3C-97">
          <mxGeometry width="80" relative="1" as="geometry">
            <mxPoint x="430" y="370" as="sourcePoint" />
            <mxPoint x="510" y="370" as="targetPoint" />
          </mxGeometry>
        </mxCell>
        <mxCell id="8y6wpV7VGv-w1ITJfM3C-108" value="opt" style="shape=umlFrame;whiteSpace=wrap;html=1;shadow=0;labelBackgroundColor=none;sketch=0;fontSize=12;strokeWidth=1;" vertex="1" parent="1">
          <mxGeometry x="120" y="460" width="640" height="530" as="geometry" />
        </mxCell>
        <mxCell id="8y6wpV7VGv-w1ITJfM3C-109" value="[用户选择修改个人信息]" style="text;html=1;resizable=0;autosize=1;align=center;verticalAlign=middle;points=[];fillColor=none;strokeColor=none;rounded=0;shadow=0;labelBackgroundColor=none;sketch=0;fontSize=12;" vertex="1" parent="1">
          <mxGeometry x="120" y="490" width="140" height="20" as="geometry" />
        </mxCell>
        <mxCell id="8y6wpV7VGv-w1ITJfM3C-110" value="alt" style="shape=umlFrame;whiteSpace=wrap;html=1;shadow=0;labelBackgroundColor=none;sketch=0;fontSize=12;strokeWidth=1;" vertex="1" parent="1">
          <mxGeometry x="160" y="520" width="520" height="260" as="geometry" />
        </mxCell>
        <mxCell id="8y6wpV7VGv-w1ITJfM3C-111" value="[修改个人信息]" style="text;html=1;resizable=0;autosize=1;align=center;verticalAlign=middle;points=[];fillColor=none;strokeColor=none;rounded=0;shadow=0;labelBackgroundColor=none;sketch=0;fontSize=12;" vertex="1" parent="1">
          <mxGeometry x="160" y="550" width="90" height="20" as="geometry" />
        </mxCell>
      </root>
    </mxGraphModel>
  </diagram>
</mxfile>
